# xmcd
#
# Track frame offsets:
#	150
#	12002
#	26475
#	40372
#	54690
#	67227
#	79920
#	94312
#	107700
#	121492
#	135027
#	147987
#	160907
#	174180
#	186575
#	200770
#	213995
#	228132
#
# Disc length: 3199 seconds
#
# Revision: 1
# Processed by: cddbd v1.4PL0 Copyright (c) Steve Scherf et al.
# Submitted via: audiograbber 1.81.02
#
DISCID=fd0c7d12
DTITLE=Red Nichols - Red Nichols
DYEAR=1900
DGENRE=
TTITLE0=Indiana
TTITLE1=Dinah
TTITLE2=On the Alamo
TTITLE3=Peg O my Heart
TTITLE4=Sweet Georgia Brown
TTITLE5=China Boy
TTITLE6=The Sheic Of Araby
TTITLE7=Fan It
TTITLE8=Riverboat Shuffle
TTITLE9=Corrinne Corrina
TTITLE10=Rose of Washinton Square
TTITLE11=Harlem Twist
TTITLE12=The DarkTown Strutters Ball
TTITLE13=Original Dixieland One-Step
TTITLE14=Davenport Blues
TTITLE15=Shim-Me-Sha-Wabble
TTITLE16=Someday Sweetheart
TTITLE17=Wabash Blues
EXTD=
EXTT0=
EXTT1=
EXTT2=
EXTT3=
EXTT4=
EXTT5=
EXTT6=
EXTT7=
EXTT8=
EXTT9=
EXTT10=
EXTT11=
EXTT12=
EXTT13=
EXTT14=
EXTT15=
EXTT16=
EXTT17=
PLAYORDER=
